<svg version="1" xmlns="http://www.w3.org/2000/svg" width="933.333" height="933.333" viewBox="0 0 700.000000 700.000000"><path d="M0 243.3v243.2l106.8 106.8L213.5 700H700V273.5L563.2 136.7 426.5 0H0v243.3zm178.9-89.2c15.5 46.7 28.5 84.9 28.7 84.7.2-.2 13.1-38.4 28.7-84.9l28.4-84.4 22.9-.3 22.9-.2 20.3 121.2c11.1 66.7 20.2 122.1 20.2 123 0 1.7-1.7 1.8-21.9 1.8-12.1 0-22.2-.4-22.5-.8-.3-.4-6.2-34.5-13.1-75.8-7-41.2-12.9-75.6-13.2-76.4-.3-.8-2.5 4.3-4.9 11.5-2.4 7.1-14.1 41.9-26 77.3L227.7 315l-20.5-.2-20.5-.3-25.7-77c-19-56.8-25.9-76.3-26.4-74.5-.3 1.4-6 33.8-12.6 72s-12.5 71.9-13.1 74.7l-1 5.3H85.4c-21.3 0-22.4-.1-22.4-1.9 0-1.6 40.1-234.3 41.6-241.4l.6-2.7h45.3l28.4 85.1zM516 295v51h-10v-12.4l-3.7 3.5c-5.6 5.3-9.2 7.5-15.2 9.3-22.1 6.6-44.3-7.8-48.1-31.1-2.6-15.9 6.2-33.5 20.4-40.7 14.8-7.5 32.1-4.7 43.4 7.1l3.2 3.4V244h10v51zm-110.9-22.9c13.3 3.4 24.5 16.4 26.9 31.6 2.7 16.4-6.7 34.1-21.8 41.1-7.5 3.4-19.2 4.2-27.4 1.7-16-4.6-26.9-19.6-26.9-36.9 0-15.5 7.5-28.2 20.5-34.6 9.6-4.8 18-5.6 28.7-2.9zm-37.3 99.4c27.1 4.4 48.8 14.3 70.2 32.1 4.2 3.4 9.5 8.3 11.8 10.8l4.2 4.6-11.2 10.8c-6.2 5.9-13.7 13-16.5 15.6l-5.3 4.8-7.6-7.1c-13.6-12.7-27.7-20.6-45.2-25.3-10.6-2.8-31.6-3.1-42.1-.5-14.2 3.5-26.7 10.4-37.9 21.1-15.6 14.9-23.6 32.6-24.9 54.8-2.3 40.2 18.8 72.6 54.9 84.6 17.1 5.7 38.3 6.1 55.2 1.1 13.4-4 28-13 41.9-25.8l6-5.6 15.9 16.5 15.8 16.5-5.2 4.8c-30.1 27.7-54.4 39-89.2 41.7-13.5 1-31.8 0-43.6-2.5-37.6-7.8-69.2-32.2-85.9-66.2-16.8-34.3-17.3-81.5-1.2-115.8 17.3-36.9 55-64.3 97.6-71 11.2-1.8 31.3-1.8 42.3 0zm120.5 135.6c5.2 1.3 10.4 4.5 15.5 9.3 15.4 14.6 16.1 38.9 1.6 54.5-7.2 7.9-15 11.4-25.9 11.9-18.4.9-32-8.2-38.6-25.7-3.2-8.5-2.5-20.3 1.8-29.3 8.3-17.5 26-25.5 45.6-20.7zm78.6.1c4.9 1.5 11.5 8 14.2 14.1 2.3 5 2.4 6.3 2.7 32.9l.3 27.8h-8.9l-.5-25.8c-.4-28.3-1-31.7-6.1-36.8-11-11-31.7-3.5-37.6 13.6-.8 2.1-1.4 12.1-1.7 25.7l-.5 22.3H520v-74h9v13.2l5.6-5.1c10-9.1 20.2-11.6 32.3-7.9z"/><path d="M465.5 282.3c-19 9.3-23 34.6-7.6 49 6.5 6.1 12.2 8.1 21.3 7.5 14.4-1 24.5-10 26.8-24.2 1.6-10-1.7-20.1-8.7-26.7-5.8-5.6-9.8-7.2-18.8-7.6-6.9-.4-8.7-.1-13 2zM382.5 282.4c-5.1 2.3-11.2 8.3-13.8 13.3-4.2 8.1-4.1 19.7.2 28.1 3 5.8 10.1 11.8 16.2 13.6 24.7 7.4 45.2-16.5 34.8-40.4-6.3-14.3-23.6-21.1-37.4-14.6zM468.5 516.2c-8.3 3-14.7 9.5-18.1 18.4-2.3 6-1.6 18.3 1.4 24 2.9 5.6 10.3 11.9 16.4 14 7.1 2.3 16 1.5 22.8-2.2 20.9-11.4 19.5-42.7-2.5-53-5.5-2.6-14.5-3.1-20-1.2z"/></svg>